<svg xmlns="http://www.w3.org/2000/svg" width="19.074" height="19.074" viewBox="0 0 19.074 19.074"><defs><style>.a{fill:#541871;}</style></defs><path class="a" d="M10.537,7.069a3.468,3.468,0,1,1-3.468,3.468,3.468,3.468,0,0,1,3.468-3.468M2.777,11.4H1V9.67H2.777A7.8,7.8,0,0,1,9.67,2.777V1H11.4V2.777A7.8,7.8,0,0,1,18.3,9.67h1.777V11.4H18.3A7.8,7.8,0,0,1,11.4,18.3v1.777H9.67V18.3A7.8,7.8,0,0,1,2.777,11.4m7.76-6.936a6.069,6.069,0,1,0,6.069,6.069,6.069,6.069,0,0,0-6.069-6.069Z" transform="translate(-1 -1)"/></svg>