<svg xmlns="http://www.w3.org/2000/svg" width="46.019" height="43.153" viewBox="0 0 46.019 43.153"><defs><style>.a{fill:#95d6a4;}.b{fill:#78c2a4;}.c{fill:#e49542;}.d{fill:#e28424;}.e{fill:#80b4fb;}.f{fill:#61a2f9;}.g{fill:#db5c6e;}.h{fill:#d64553;}.i{fill:#ededed;}.j{fill:#dbdbdb;}.k{fill:#ffd064;}.l{fill:#ffc250;}.m{fill:#365e7d;}.n{fill:#407093;}</style></defs><g transform="translate(0.001 18.691)"><path class="a" d="M237.018,7.943a31.136,31.136,0,0,0-3.045,4.817l-.15-.067L227.59,9.88C226.3,6.2,226.725,3,228,3c1.258,0,2.621,3.122,2.664,3.22-.018-.118-.717-4.736,1.386-4.736A1.946,1.946,0,0,1,233.833,3a6.778,6.778,0,0,1,.352,2.033s1.594-3.623,3.516-3.09S238.1,6.865,237.018,7.943Z" transform="translate(-208.315 -18.526)"/><path class="b" d="M233.493,11.434a3.082,3.082,0,0,1,.33,1.258L227.59,9.88C226.3,6.2,226.725,3,228,3c1.258,0,2.621,3.122,2.664,3.22-.018-.118-.717-4.736,1.386-4.736A1.946,1.946,0,0,1,233.833,3h0C233.093,1.48,230.935,5.851,233.493,11.434Z" transform="translate(-208.315 -18.526)"/><g transform="translate(12.744 -18.691)"><ellipse class="c" cx="15.554" cy="7.978" rx="15.554" ry="7.978" transform="translate(0 21.993) rotate(-45)"/><g transform="translate(4.279 4.272)"><path class="d" d="M210.139,57.059c-3.115-3.115-.717-10.565,5.357-16.639s13.524-8.473,16.639-5.357c-1.312-1.312-7.3,2.549-13.373,8.624S208.828,55.748,210.139,57.059Z" transform="translate(-208.774 -33.698)"/><path class="d" d="M378.455,89.858l-4.577-4.577a1.35,1.35,0,0,0-1.909,1.909l4.577,4.577a1.35,1.35,0,0,0,1.909-1.909Z" transform="translate(-358.298 -80.711)"/><path class="d" d="M314.279,154.034l-4.577-4.577a1.35,1.35,0,0,0-1.909,1.909l4.577,4.577a1.35,1.35,0,1,0,1.909-1.909Z" transform="translate(-299.355 -139.654)"/></g></g><g transform="translate(4 -16.974)"><path class="e" d="M63.644,25.452A39.68,39.68,0,0,1,63.109,30a2.064,2.064,0,0,1-1.237,1.522c-.577.24-1.2.639-1.2,1.239a1.268,1.268,0,0,0,.105.516H51.931a1.268,1.268,0,0,0,.105-.516c0-.6-.622-1-1.2-1.239A2.061,2.061,0,0,1,49.6,30a39.537,39.537,0,0,1-.536-4.552,2.039,2.039,0,0,1,.264-1.144,13,13,0,0,1,4.48-4.2V15.964H58.9v4.141a13,13,0,0,1,4.479,4.2A2.032,2.032,0,0,1,63.644,25.452Z" transform="translate(-49.06 -14.855)"/><path class="f" d="M107.285,32.189h5.093V33.7h-5.093Z" transform="translate(-102.537 -29.757)"/><path class="f" d="M55.234,29.575v3.031a9.842,9.842,0,0,0-3.04,4.2,3.212,3.212,0,0,0-.156,1.144c.034.919.122,2.8.318,4.552a2.15,2.15,0,0,0,.732,1.522,1.513,1.513,0,0,1,.709,1.239,2.02,2.02,0,0,1-.062.516h-1.8a1.268,1.268,0,0,0,.105-.516c0-.6-.622-1-1.2-1.239A2.063,2.063,0,0,1,49.6,42.505a39.373,39.373,0,0,1-.536-4.552,2.03,2.03,0,0,1,.264-1.144,13,13,0,0,1,4.48-4.2V30.243Z" transform="translate(-49.06 -27.356)"/><path class="g" d="M105.921,2.366H102a1.109,1.109,0,0,0-1.109,1.109V5.253h6.135V3.475A1.109,1.109,0,0,0,105.921,2.366Z" transform="translate(-96.668 -2.366)"/><path class="h" d="M104.2,2.37a1.108,1.108,0,0,0-1.109,1.108V5.257h-2.2V3.478A1.108,1.108,0,0,1,102,2.37Z" transform="translate(-96.668 -2.37)"/></g><path class="g" d="M66.367,274.62s-.037,1.225-.159,3.13a109.275,109.275,0,0,1-1.2,10.871,6.282,6.282,0,0,1-6.188,5.235H36.964a6.282,6.282,0,0,1-6.188-5.235,109.275,109.275,0,0,1-1.2-10.871c-.122-1.905-.159-3.13-.159-3.13Z" transform="translate(-27.016 -269.394)"/><path class="h" d="M66.366,274.62s-.037,1.225-.159,3.13a3.129,3.129,0,0,1-.6.07q-17.72.34-35.439,0a3.134,3.134,0,0,1-.6-.07c-.122-1.905-.159-3.13-.159-3.13Z" transform="translate(-27.016 -269.394)"/><path class="h" d="M39.664,293.856h-2.7a6.282,6.282,0,0,1-6.188-5.235,117.826,117.826,0,0,1-1.362-14H33.98s.167,7.317,1.025,14C35.393,291.641,37.356,293.856,39.664,293.856Z" transform="translate(-27.016 -269.394)"/><path class="i" d="M159.054,104.891a67.569,67.569,0,0,0-12.795-.161c-.566.047-.778.455-1.345.516a60.09,60.09,0,0,0-.355,13.813,67.593,67.593,0,0,0,14.494,0A63.149,63.149,0,0,0,159.054,104.891Z" transform="translate(-132.532 -113.146)"/><path class="j" d="M144.727,121.791q-.849-.069-1.7-.161a63.115,63.115,0,0,1,0-14.168q.849-.091,1.7-.161A66.86,66.86,0,0,0,144.727,121.791Z" transform="translate(-131 -115.718)"/><path class="k" d="M38.6,203.11q-17.719.341-35.438,0A3.139,3.139,0,0,1,.143,200.6a6.92,6.92,0,0,1,0-2.779A3.139,3.139,0,0,1,3.158,195.3q17.719-.341,35.438,0a3.139,3.139,0,0,1,3.015,2.513,6.92,6.92,0,0,1,0,2.779A3.139,3.139,0,0,1,38.6,203.11Z" transform="translate(-0.003 -196.389)"/><path class="l" d="M6.174,204.494q-1.509-.023-3.02-.052A3.138,3.138,0,0,1,.14,201.928a6.909,6.909,0,0,1,0-2.779,3.138,3.138,0,0,1,3.014-2.513q1.509-.029,3.02-.052A3.255,3.255,0,0,0,3.769,199.1a7.156,7.156,0,0,0,0,2.884A3.256,3.256,0,0,0,6.174,204.494Z" transform="translate(0 -197.721)"/><g transform="translate(10.444 10.307)"><path class="m" d="M130.2,336.932h-.039a2.039,2.039,0,0,0-2.023,1.981q-.077,2.556,0,5.111a2.039,2.039,0,0,0,2.023,1.981h.039a2.039,2.039,0,0,0,2.022-1.981q.077-2.556,0-5.111A2.039,2.039,0,0,0,130.2,336.932Z" transform="translate(-128.098 -336.932)"/><path class="m" d="M232.587,336.932h-.039a2.039,2.039,0,0,0-2.022,1.981q-.077,2.556,0,5.111a2.039,2.039,0,0,0,2.022,1.981h.039a2.039,2.039,0,0,0,2.022-1.981q.077-2.556,0-5.111A2.039,2.039,0,0,0,232.587,336.932Z" transform="translate(-222.137 -336.932)"/><path class="m" d="M334.976,336.932h-.039a2.039,2.039,0,0,0-2.023,1.981q-.077,2.556,0,5.111a2.039,2.039,0,0,0,2.023,1.981h.039A2.039,2.039,0,0,0,337,344.024q.077-2.556,0-5.111A2.039,2.039,0,0,0,334.976,336.932Z" transform="translate(-316.177 -336.932)"/></g><g transform="translate(1.197 1.147)"><g transform="translate(0 0)"><path class="n" d="M23.823,225.161a6.21,6.21,0,0,0-1.389-.505,2.068,2.068,0,0,0-2.386,1.271q-2.8,7.144-5.248,14.418a2.069,2.069,0,0,0,1.011,2.507,6.21,6.21,0,0,0,1.389.505,2.068,2.068,0,0,0,2.386-1.271q2.8-7.144,5.248-14.418A2.068,2.068,0,0,0,23.823,225.161Z" transform="translate(-14.691 -224.602)"/><path class="m" d="M16.385,243.108a6.075,6.075,0,0,1-.577-.255,2.068,2.068,0,0,1-1.011-2.507q2.445-7.274,5.248-14.418a2.068,2.068,0,0,1,2.386-1.271,6.051,6.051,0,0,1,.6.175,2.175,2.175,0,0,0-1.462,1.308q-2.92,7.445-5.468,15.024A2.174,2.174,0,0,0,16.385,243.108Z" transform="translate(-14.688 -224.603)"/></g><g transform="translate(29.101)"><path class="n" d="M374.085,224.651a6.2,6.2,0,0,0-1.389.505,2.068,2.068,0,0,0-1.011,2.507q2.445,7.274,5.248,14.418a2.068,2.068,0,0,0,2.386,1.271,6.205,6.205,0,0,0,1.389-.505,2.068,2.068,0,0,0,1.011-2.507q-2.445-7.274-5.248-14.418A2.068,2.068,0,0,0,374.085,224.651Z" transform="translate(-371.576 -224.598)"/><path class="m" d="M379.925,246.614a6.075,6.075,0,0,1-.606.175,2.068,2.068,0,0,1-2.386-1.271q-2.8-7.143-5.248-14.418a2.068,2.068,0,0,1,1.011-2.507,6.048,6.048,0,0,1,.575-.254,2.175,2.175,0,0,0-.279,1.942q2.549,7.58,5.468,15.024a2.173,2.173,0,0,0,1.464,1.309Z" transform="translate(-371.575 -228.034)"/></g></g><path class="g" d="M101.373,31.5H95.479a.612.612,0,1,1,0-1.223h5.895a.612.612,0,0,1,0,1.223Z" transform="translate(-87.132 -44.973)"/><path class="h" d="M97.315,31.5H95.479a.612.612,0,1,1,0-1.223h1.836a.612.612,0,1,0,0,1.223Z" transform="translate(-87.132 -44.973)"/></g></svg>