<svg xmlns="http://www.w3.org/2000/svg" width="71.126" height="94.819" viewBox="0 0 71.126 94.819"><defs><style>.a{fill:#541871;}.b{fill:#71338e;}.c{fill:#e6f9fe;}</style></defs><g transform="translate(-24)"><path class="a" d="M59.563,0A35.6,35.6,0,0,0,24,35.563C24,60.62,55.431,92.34,56.769,93.678a3.99,3.99,0,0,0,5.588,0C63.7,92.34,95.126,60.62,95.126,35.563A35.6,35.6,0,0,0,59.563,0Z"/><path class="b" d="M35.854,32A35.592,35.592,0,0,1,54.431.76,35.612,35.612,0,0,0,24,35.948C24,61,55.431,92.724,56.769,94.062a3.99,3.99,0,0,0,5.588,0c.308-.308,2.21-2.227,4.955-5.3C61.131,82.295,35.854,54.47,35.854,32Z" transform="translate(0 -0.385)"/><ellipse class="c" cx="23.984" cy="23.54" rx="23.984" ry="23.54" transform="translate(35.548 12.234)"/></g></svg>