<svg xmlns="http://www.w3.org/2000/svg" width="12.073" height="17.246" viewBox="0 0 12.073 17.246"><defs><style>.a{fill:#858aa8;}</style></defs><g transform="translate(-22 -10.004)"><g transform="translate(22 10.004)"><path class="a" d="M28.037,962.366A5.935,5.935,0,0,0,22,968.4a5.728,5.728,0,0,0,.889,3.126l4.588,7.761a.647.647,0,0,0,1.118,0l4.588-7.761a5.727,5.727,0,0,0,.889-3.126A5.935,5.935,0,0,0,28.037,962.366Zm0,1.294A4.555,4.555,0,0,1,32.78,968.4a4.163,4.163,0,0,1-.707,2.473l-4.036,6.818L24,970.875a4.163,4.163,0,0,1-.707-2.473A4.555,4.555,0,0,1,28.037,963.66Zm0,1.509a3.234,3.234,0,1,0,3.234,3.234A3.244,3.244,0,0,0,28.037,965.169Zm0,1.294a1.94,1.94,0,1,1-1.94,1.94A1.931,1.931,0,0,1,28.037,966.462Z" transform="translate(-22 -962.366)"/></g></g></svg>